<svg width="1887" height="2444" viewBox="0 0 1887 2444" fill="none" xmlns="http://www.w3.org/2000/svg">
<path fill-rule="evenodd" clip-rule="evenodd" d="M785.854 1355.95C772.097 1362.91 743.055 1374.07 721.286 1380.76C700.939 1387.05 684.036 1390.44 663.306 1391.93C663.306 1391.93 707.775 1547.07 631.681 1562.73C555.587 1578.4 528.751 1517.98 528.751 1517.98C490.319 1682.43 605.502 1944.21 859.728 1975.02C902.166 1977.33 947.677 1975.85 996.45 1970C1358.28 1858.13 1376.88 1580.64 1327.64 1369.75C1327.64 1369.75 1294.08 1535.88 1200.09 1485.6C1150.86 1450.84 1240.37 1334.48 1209.04 1266.43C1189.68 1269.04 1170.45 1269.8 1150.86 1268.71C1120.19 1267.08 1101.53 1262.92 1082.45 1253.54C1068.01 1246.43 1045.29 1229.99 1032.01 1216.93C1018.67 1203.86 996.111 1173.25 981.827 1148.92C967.542 1124.52 951.097 1101.4 945.299 1097.5C939.501 1093.6 930.488 1090.44 925.27 1090.44C920.104 1090.49 910.406 1095.81 903.765 1102.35C893.961 1112.04 891.009 1122.47 887.794 1158.98C885.632 1183.63 881.363 1215.61 878.359 1230.1C875.302 1244.58 867.184 1267.71 860.332 1281.46C853.427 1295.21 839.512 1314.76 829.339 1324.92C819.167 1335.09 799.612 1349.05 785.854 1355.95ZM942.743 1504.55C995.295 1511.78 1022 1506.71 1063.58 1477.7C1056.87 1544.83 974.072 1551.54 942.743 1504.55ZM828.285 1385.56C835.137 1375.5 846.469 1364.28 853.48 1360.64C860.49 1357.01 868.607 1353.9 871.506 1353.74C874.405 1353.58 880.361 1357.37 884.684 1362.17C891.799 1370.02 891.377 1371.91 880.73 1380.82C874.194 1386.3 868.765 1391.35 868.66 1392.09C868.555 1392.83 880.994 1398.99 896.332 1405.79C911.671 1412.64 934.862 1419.38 947.934 1420.8C961.217 1422.22 987.888 1419.54 1008.55 1414.59C1028.84 1409.79 1051.98 1401.26 1059.94 1395.67C1067.9 1390.09 1077.39 1385.4 1081.02 1385.29C1084.66 1385.14 1091.14 1388.82 1095.52 1393.46C1102.58 1400.99 1102.06 1403.26 1090.25 1414.85C1083.03 1421.96 1061.05 1433.71 1041.49 1440.87C1015.35 1450.51 995.425 1453.99 966.382 1453.99C939.132 1453.99 917.469 1450.51 896.543 1442.82C879.887 1436.66 863.864 1429.49 860.965 1426.91C858.066 1424.33 853.902 1422.22 851.741 1422.28C849.579 1422.33 847.207 1428.86 846.469 1436.82C845.573 1446.62 841.726 1451.83 834.61 1452.99C828.812 1453.99 822.329 1451.62 820.22 1447.77C818.059 1443.98 816.214 1432.55 816.109 1422.38C815.951 1411.42 820.906 1396.52 828.285 1385.56Z" fill="#FCE041"/>
<path d="M785.854 1016.74C831.026 1016.74 872.719 1013.68 896.543 1008.63C910.601 1005.64 930.277 998.979 951.053 990.399C929.899 886.763 904.188 835.063 812.951 763.84C864.42 880.206 804 928.183 750.293 1017.54C762.668 1017.04 774.81 1016.75 785.854 1016.74Z" fill="#FCE041"/>
<path d="M423.48 1193.22C409.301 1187.16 401.659 1186.64 390.537 1190.96C385.496 1192.92 365.802 1199.39 340.253 1207.51C277.572 1305.35 321.777 1945.63 859.728 1975.02C605.502 1944.21 490.319 1682.43 528.751 1517.98C528.751 1517.98 555.587 1578.4 631.681 1562.73C707.775 1547.07 663.306 1391.93 663.306 1391.93C653.802 1392.61 643.494 1392.9 631.681 1392.88C587.722 1392.83 578.234 1391.09 553.935 1378.66C538.702 1370.81 518.251 1354.37 508.447 1342.04C498.696 1329.72 487.1 1312.54 482.672 1303.85C478.297 1295.16 467.281 1268.5 458.321 1244.58C443.826 1206.18 439.767 1200.17 423.48 1193.22Z" fill="#FABB14"/>
<path d="M1306.36 1238.05C1290.44 1246.01 1258.39 1256.7 1235.2 1261.81C1226.42 1263.72 1217.72 1265.26 1209.04 1266.43C1240.37 1334.48 1150.86 1450.84 1200.09 1485.6C1294.08 1535.88 1327.64 1369.75 1327.64 1369.75C1376.88 1580.64 1358.28 1858.13 996.45 1970C1412.96 1863.23 1497.86 1534.54 1486.48 1274.37C1460.95 1307.73 1430.58 1332.69 1430.58 1379.23C1423.58 1311.98 1456.93 1269.28 1482.3 1216.15C1470.06 1093.25 1438.58 992.611 1416.51 949.577C1415.35 951.401 1414.04 953.367 1412.56 955.525C1398.91 975.438 1398.6 977.861 1398.6 1058.25C1398.6 1139.85 1398.49 1140.75 1382.78 1168.88C1374.09 1184.53 1359.86 1203.18 1351.16 1210.39C1342.46 1217.61 1322.27 1230.04 1306.36 1238.05Z" fill="#FAB913"/>
<path d="M1486.48 1274.37C1513.73 1238.76 1535.48 1193.57 1508.91 1102.35C1509.74 1148.97 1497.44 1184.42 1482.3 1216.15C1484.18 1235.07 1485.61 1254.52 1486.48 1274.37Z" fill="#FCE041"/>
<path d="M1430.58 1379.23C1430.58 1332.69 1460.95 1307.73 1486.48 1274.37C1485.61 1254.52 1484.18 1235.07 1482.3 1216.15C1456.93 1269.28 1423.58 1311.98 1430.58 1379.23Z" fill="#FCE041"/>
<path fill-rule="evenodd" clip-rule="evenodd" d="M990.102 972.541C1020.51 957.158 1067.95 937.192 1095.52 928.183C1107.67 924.236 1122.52 919.686 1137.32 915.339C1137.32 915.339 1095.52 725.798 992.737 647.974C857.707 544.537 790.573 491.249 785.854 298.379C785.854 298.379 613.787 457.006 602.598 647.974C595.901 678.318 607.763 725.545 620.575 776.552C646.289 878.931 675.829 996.539 566.794 1023.42C463.012 1054.75 450.428 918.248 450.428 918.248L365.5 1120.15C379.754 1114.29 389.434 1110.01 391.855 1108.4C397.653 1104.56 429.7 1091.7 463.012 1079.8C496.324 1067.95 543.762 1052.56 568.43 1045.66C593.098 1038.71 635.739 1029.38 663.306 1024.91C683.407 1021.66 717.665 1018.86 750.293 1017.54C804 928.183 864.42 880.206 812.951 763.84C904.188 835.063 929.899 886.763 951.053 990.399C964.007 985.05 977.389 978.954 990.102 972.541ZM730.153 638.524C741.341 669.853 777.146 714.609 754.768 721.322C723.439 725.798 721.201 638.524 730.153 638.524ZM727.915 602.719C732.39 602.719 734.628 573.628 723.439 575.866C712.25 578.104 723.439 602.719 727.915 602.719Z" fill="#FABB14"/>
<path fill-rule="evenodd" clip-rule="evenodd" d="M127.433 1340.64C126.91 1334.32 129.694 1332.82 138.852 1332.82C146.758 1332.82 156.878 1327.03 164.152 1318.34C170.793 1310.38 177.909 1294.95 179.965 1284.09C182.178 1272.29 188.398 1261.23 195.514 1256.6C202.05 1252.33 245.324 1237.1 291.708 1222.72C308.713 1217.47 325.464 1212.21 340.253 1207.51C365.802 1199.39 385.496 1192.92 390.537 1190.96C401.659 1186.64 409.301 1187.16 423.48 1193.22C439.767 1200.17 443.826 1206.18 458.321 1244.58C467.281 1268.5 478.297 1295.16 482.672 1303.85C487.1 1312.54 498.696 1329.72 508.447 1342.04C518.251 1354.37 538.702 1370.81 553.935 1378.66C578.234 1391.09 587.722 1392.83 631.681 1392.88C643.494 1392.9 653.802 1392.61 663.306 1391.93C684.036 1390.44 700.939 1387.05 721.286 1380.76C743.055 1374.07 772.097 1362.91 785.854 1355.95C799.612 1349.05 819.167 1335.09 829.339 1324.92C839.512 1314.76 853.427 1295.21 860.332 1281.46C867.184 1267.71 875.302 1244.58 878.359 1230.1C881.363 1215.61 885.632 1183.63 887.794 1158.98C891.009 1122.47 893.961 1112.04 903.765 1102.35C910.406 1095.81 920.104 1090.49 925.27 1090.44C930.488 1090.44 939.501 1093.6 945.299 1097.5C951.097 1101.4 967.542 1124.52 981.827 1148.92C996.111 1173.25 1018.67 1203.86 1032.01 1216.93C1045.29 1229.99 1068.01 1246.43 1082.45 1253.54C1101.53 1262.92 1120.19 1267.08 1150.86 1268.71C1170.45 1269.8 1189.68 1269.04 1209.04 1266.43C1217.72 1265.26 1226.42 1263.72 1235.2 1261.81C1258.39 1256.7 1290.44 1246.01 1306.36 1238.05C1322.27 1230.04 1342.46 1217.61 1351.16 1210.39C1359.86 1203.18 1374.09 1184.53 1382.78 1168.88C1398.49 1140.75 1398.6 1139.85 1398.6 1058.25C1398.6 977.861 1398.91 975.438 1412.56 955.525C1414.04 953.367 1415.35 951.401 1416.51 949.577C1425.26 935.857 1425.54 930.164 1421.68 911.378C1419 898.313 1413.25 884.089 1408.87 879.77C1405.47 876.393 1401.3 874.68 1389.37 874.767C1376.56 874.861 1354.79 877.034 1315.42 881.455C1296.35 883.593 1275.56 886.337 1256.03 889.227C1227.43 893.461 1201.54 898.009 1187.76 901.421C1174.79 904.633 1156.1 909.822 1137.32 915.339C1122.52 919.686 1107.67 924.236 1095.52 928.183C1067.95 937.192 1020.51 957.158 990.102 972.541C977.389 978.954 964.007 985.05 951.053 990.399C930.277 998.979 910.601 1005.64 896.543 1008.63C872.719 1013.68 831.026 1016.74 785.854 1016.74C774.81 1016.75 762.668 1017.04 750.293 1017.54C717.665 1018.86 683.407 1021.66 663.306 1024.91C635.739 1029.38 593.098 1038.71 568.43 1045.66C543.762 1052.56 496.324 1067.95 463.012 1079.8C429.7 1091.7 397.653 1104.56 391.855 1108.4C389.434 1110.01 379.754 1114.29 365.5 1120.15C345.616 1128.34 316.831 1139.61 286.437 1151.02C234.255 1170.62 184.445 1190.22 175.748 1194.54C167.051 1198.86 152.24 1208.02 125.674 1227.46C123.774 1244.03 121.618 1300.04 127.433 1340.64ZM535.464 1303.85L622.738 1074.89C686.555 1057.81 723.342 1053.47 790.573 1054.75L676.445 1352.38C609.703 1365 578.282 1355.82 535.464 1303.85ZM1150.86 956.291L1063.58 1180.07C1105.56 1230.51 1136.56 1238.43 1200.09 1230.1L1314.22 928.183C1250.75 926.705 1214.99 933.175 1150.86 956.291Z" fill="#1C1A1D"/>
<path d="M622.738 1074.89L535.464 1303.85C578.282 1355.82 609.703 1365 676.445 1352.38L790.573 1054.75C723.342 1053.47 686.555 1057.81 622.738 1074.89Z" fill="#494949"/>
<path d="M1063.58 1180.07L1150.86 956.291C1214.99 933.175 1250.75 926.705 1314.22 928.183L1200.09 1230.1C1136.56 1238.43 1105.56 1230.51 1063.58 1180.07Z" fill="#494949"/>
<path d="M730.153 638.524C741.341 669.853 777.146 714.609 754.768 721.322C723.439 725.798 721.201 638.524 730.153 638.524Z" fill="#FCE041"/>
<path d="M727.915 602.719C732.39 602.719 734.628 573.628 723.439 575.866C712.25 578.104 723.439 602.719 727.915 602.719Z" fill="#FCE041"/>
<path d="M253.502 1097.27C269.167 1095.53 264.691 1027.9 257.978 1005.52C242.313 1005.52 228.887 1097.27 253.502 1097.27Z" fill="#FCE041"/>
<path d="M271.405 958.529C278.118 965.242 293.783 931.675 286.437 927.2C279.091 922.724 271.405 947.34 271.405 958.529Z" fill="#FCE041"/>
<path d="M1256.03 889.227C1275.56 886.337 1296.35 883.593 1315.42 881.455C1354.79 877.034 1376.56 874.861 1389.37 874.767C1355.89 805.25 1333.5 770.64 1285.13 719.146C1285.8 793.099 1281.48 831.621 1256.03 889.227Z" fill="#FAB913"/>
<path fill-rule="evenodd" clip-rule="evenodd" d="M873.931 15.9096C875.513 16.015 873.826 29.6593 870.294 46.2011C866.71 62.7955 863.706 97.1435 863.706 122.483C863.653 152.722 866.921 179.009 873.193 198.87C878.517 215.517 889.428 239.856 897.545 252.868C905.662 265.88 947.249 310.975 989.996 352.961C1060.63 422.342 1069.75 433.458 1089.46 474.127C1102.27 500.573 1114.5 536.133 1119.24 561.051C1123.72 584.23 1129.68 610.887 1132.52 620.317C1135.37 629.746 1142.43 639.809 1148.23 642.706C1154.03 645.603 1165.89 647.974 1174.58 647.974C1185.71 647.974 1193.61 643.654 1201.2 633.487C1207.16 625.532 1214.54 609.517 1217.59 597.927C1220.65 586.337 1221.86 565.002 1220.28 550.515C1218.7 536.027 1215.75 515.903 1210.16 487.298L1245.58 521.54C1265.03 540.347 1300.98 580.648 1325.49 611.097C1350 641.547 1380.31 681.848 1392.8 700.655C1405.34 719.462 1426.85 753.862 1440.55 777.042C1454.31 800.222 1478.03 846.475 1493.31 879.77C1508.6 913.064 1529.79 967.641 1540.38 1000.94C1550.98 1034.23 1562.31 1076.95 1565.63 1095.76C1568.9 1114.57 1573.01 1131.74 1574.7 1133.9C1585.56 1204.02 1587.99 1243.48 1585.91 1313.27C1585.9 1313.44 1585.89 1313.61 1585.89 1313.77C1585.88 1313.98 1585.88 1314.18 1585.87 1314.39C1585.71 1323.08 1581.87 1355.11 1577.28 1385.51C1572.69 1415.9 1563.15 1460.94 1556.09 1485.6C1549.08 1510.25 1531.27 1555.3 1516.56 1585.69C1501.91 1616.09 1478.82 1657.5 1465.33 1677.67C1451.83 1697.85 1418.26 1737.83 1390.69 1766.55C1363.12 1795.2 1325.86 1829.71 1274.99 1867.53C1220.91 1901.46 1190.73 1919.89 1140.32 1939.6L1098.16 1954.62C1074.96 1962.89 1032.27 1974.37 1003.28 1980.17C974.289 1985.96 925.639 1992.34 839.881 1997.87C777.13 1999.02 714.445 1987.39 679.084 1976.23C677.043 1975.47 674.684 1974.69 671.97 1973.87C668.09 1972.69 663.482 1971.42 658.035 1970C639.218 1965.1 610.703 1956.09 594.785 1949.98C578.866 1943.87 544.447 1927.91 518.356 1914.47C492.265 1901.04 460.271 1882.76 447.199 1873.8C434.127 1864.9 408.036 1845.36 389.219 1830.34C370.402 1815.38 341.834 1789.15 325.758 1772.08C309.734 1755.06 285.804 1726.88 272.627 1709.49C259.502 1692.11 244.164 1670.14 238.577 1660.71C232.99 1651.23 227.245 1643.48 225.821 1643.38C273.642 1502.31 213.013 1448.61 165.206 1506.25L153.663 1468.27C147.338 1447.35 139.484 1413.69 136.269 1393.41C133.054 1373.13 129.311 1351.21 128.046 1344.68C127.832 1343.35 127.628 1342 127.433 1340.64C126.91 1334.32 129.694 1332.82 138.852 1332.82C146.758 1332.82 156.878 1327.03 164.152 1318.34C170.793 1310.38 177.909 1294.95 179.965 1284.09C182.178 1272.29 188.398 1261.23 195.514 1256.6C202.05 1252.33 245.324 1237.1 291.708 1222.72C308.713 1217.47 325.464 1212.21 340.253 1207.51C277.572 1305.35 321.777 1945.63 859.728 1975.02C901.559 1980.08 947.155 1978.9 996.45 1970C1412.96 1863.23 1497.86 1534.54 1486.48 1274.37C1513.73 1238.76 1535.48 1193.57 1508.91 1102.35C1509.74 1148.97 1497.44 1184.42 1482.3 1216.15C1470.06 1093.25 1438.58 992.611 1416.51 949.577C1425.26 935.857 1425.54 930.164 1421.68 911.378C1419 898.313 1413.25 884.089 1408.87 879.77C1405.47 876.393 1401.3 874.68 1389.37 874.767C1355.89 805.25 1333.5 770.64 1285.13 719.146C1285.8 793.099 1281.48 831.621 1256.03 889.227C1227.43 893.461 1201.54 898.009 1187.76 901.421C1174.79 904.633 1156.1 909.822 1137.32 915.339C1137.32 915.339 1095.52 725.798 992.737 647.974C857.707 544.537 790.573 491.249 785.854 298.379C785.854 298.379 613.787 457.006 602.598 647.974C595.901 678.318 607.763 725.545 620.575 776.552C646.289 878.931 675.829 996.539 566.794 1023.42C463.012 1054.75 450.428 918.248 450.428 918.248L365.5 1120.15C345.616 1128.34 316.831 1139.61 286.437 1151.02C234.255 1170.62 184.445 1190.22 175.748 1194.54C167.051 1198.86 152.24 1208.02 125.674 1227.46V1211.66C125.674 1202.97 129.311 1167.99 133.739 1133.95C138.166 1099.92 147.549 1048.35 154.559 1019.37C161.569 990.399 175.432 941.775 185.341 911.378C195.25 880.981 211.063 838.31 220.445 816.553C229.827 794.848 251.807 748.594 269.306 713.825C286.753 679.056 306.413 642.337 324.914 613.732L328.024 626.902C329.711 634.172 331.134 650.134 331.187 662.461C331.187 674.789 335.034 696.124 339.673 709.874C344.311 723.624 353.799 742.589 360.756 752.019C367.714 761.448 381.102 773.881 390.537 779.676C401.659 786.472 416.891 790.16 434.022 790.16C450.045 790.16 466.016 786.525 474.766 780.94C482.672 775.883 493.899 764.662 499.697 755.97C505.495 747.277 512.769 728.312 515.826 713.825C520.096 693.806 519.463 671.364 513.296 620.317C508.816 583.387 505.232 538.345 505.232 520.223C505.284 502.101 509.712 465.962 515.088 439.885C520.465 413.808 532.272 374.719 541.285 352.961C550.298 331.257 570.169 293.327 585.402 268.672C600.688 243.912 634.316 201.82 660.565 174.532C686.709 147.401 725.924 111.841 747.64 95.563C769.409 79.2319 806.042 54.63 829.129 40.8277C852.162 27.078 872.35 15.8569 873.931 15.9096ZM253.502 1097.27C269.167 1095.53 264.691 1027.9 257.978 1005.52C242.313 1005.52 228.887 1097.27 253.502 1097.27ZM271.405 958.529C278.118 965.242 293.783 931.675 286.437 927.2C279.091 922.724 271.405 947.34 271.405 958.529Z" fill="url(#paint0_linear_441_269)"/>
<path d="M853.48 1360.64C846.469 1364.28 835.137 1375.5 828.285 1385.56C820.906 1396.52 815.951 1411.42 816.109 1422.38C816.214 1432.55 818.059 1443.98 820.22 1447.77C822.329 1451.62 828.812 1453.99 834.61 1452.99C841.726 1451.83 845.573 1446.62 846.469 1436.82C847.207 1428.86 849.579 1422.33 851.741 1422.28C853.902 1422.22 858.066 1424.33 860.965 1426.91C863.864 1429.49 879.887 1436.66 896.543 1442.82C917.469 1450.51 939.132 1453.99 966.382 1453.99C995.425 1453.99 1015.35 1450.51 1041.49 1440.87C1061.05 1433.71 1083.03 1421.96 1090.25 1414.85C1102.06 1403.26 1102.58 1400.99 1095.52 1393.46C1091.14 1388.82 1084.66 1385.14 1081.02 1385.29C1077.39 1385.4 1067.9 1390.09 1059.94 1395.67C1051.98 1401.26 1028.84 1409.79 1008.55 1414.59C987.888 1419.54 961.217 1422.22 947.934 1420.8C934.862 1419.38 911.671 1412.64 896.332 1405.79C880.994 1398.99 868.555 1392.83 868.66 1392.09C868.765 1391.35 874.194 1386.3 880.73 1380.82C891.377 1371.91 891.799 1370.02 884.684 1362.17C880.361 1357.37 874.405 1353.58 871.506 1353.74C868.607 1353.9 860.49 1357.01 853.48 1360.64Z" fill="#811604"/>
<path d="M942.743 1504.55C995.295 1511.78 1022 1506.71 1063.58 1477.7C1056.87 1544.83 974.072 1551.54 942.743 1504.55Z" fill="#FABB14"/>
<path d="M843.493 2061.76L839.881 1997.87C777.13 1999.02 714.445 1987.39 679.084 1976.23C689.373 1980.07 691.604 1983.38 690.715 1989.07C690.271 1992.01 690.543 2003.55 691.347 2019.52C745.579 2043.63 778.472 2053.73 843.493 2061.76Z" fill="#FB560C"/>
<path d="M1300.19 1893.88L1274.99 1867.53C1220.91 1901.46 1190.73 1919.89 1140.32 1939.6C1160.22 1959.65 1176.38 1977.15 1189.6 1992.39C1242.71 1966.63 1272.01 1951.52 1310.28 1905.12C1306.57 1900.78 1303.15 1896.96 1300.19 1893.88Z" fill="#FB560C"/>
<path d="M272.153 1796.42C274.261 1796.42 288.967 1809.64 304.938 1825.86C320.856 1842.09 348.106 1866.43 365.5 1879.91C382.841 1893.45 411.304 1913.74 428.751 1925.11C446.145 1936.44 484.148 1957.25 513.138 1971.32C562.052 1995.13 564.16 1996.76 542.128 1993.92C529.056 1992.23 498.222 1983.85 473.606 1975.21C448.939 1966.63 415.943 1951.93 400.288 1942.55C384.581 1933.23 357.594 1912.52 340.253 1896.56C322.964 1880.65 302.197 1858.11 294.185 1846.52C286.121 1834.93 277.055 1818.96 273.997 1810.96C270.94 1803 270.097 1796.47 272.153 1796.42Z" fill="#FB560C"/>
<path d="M1630.67 1490.92C1634.94 1490.92 1639.11 1494.61 1639.95 1499.14C1640.74 1503.67 1639.53 1517.89 1637.32 1530.75C1635.05 1543.6 1626.98 1568.99 1619.39 1587.06C1611.8 1605.18 1595.2 1636 1582.5 1655.55C1569.8 1675.14 1541.02 1710.34 1518.56 1733.83C1496.06 1757.33 1473.55 1778.66 1468.49 1781.24C1463.38 1783.83 1474.18 1766.39 1492.47 1742.47C1510.76 1718.61 1533.16 1687.16 1542.28 1672.67C1551.35 1658.18 1568.11 1623.83 1579.44 1596.28C1590.83 1568.78 1601.79 1539.12 1603.85 1530.43C1605.9 1521.74 1611.01 1509.31 1615.18 1502.77C1619.39 1496.29 1626.35 1490.92 1630.67 1490.92Z" fill="#FB560C"/>
<path d="M1651.13 1386.61C1659.56 1387.82 1662.56 1392.56 1663.72 1406.63C1664.57 1416.8 1662.19 1429.6 1658.45 1435.08C1654.08 1441.56 1648.38 1443.88 1642.43 1441.66C1636.05 1439.29 1633.2 1432.55 1633.2 1419.8C1633.2 1409.69 1634.73 1397.67 1636.63 1393.2C1638.53 1388.61 1644.91 1385.72 1651.13 1386.61Z" fill="#FB560C"/>
<path d="M1763.18 1332.09C1767.51 1333.98 1770.25 1340.25 1769.3 1346.05C1768.24 1352.47 1763.5 1356.58 1757.12 1356.58C1750.75 1356.58 1745.95 1352.47 1744.89 1346.05C1743.89 1340.25 1745.84 1333.98 1749.22 1332.09C1752.54 1330.14 1758.86 1330.14 1763.18 1332.09Z" fill="#FB560C"/>
<path d="M1517.61 553.201C1520.3 553.201 1526.31 560.893 1531.05 570.323C1535.75 579.7 1539.44 598.085 1539.28 611.15C1539.12 624.162 1533.85 646.71 1527.58 661.197C1518.77 681.637 1516.72 694.597 1518.56 719.146C1519.88 736.53 1526.05 761.975 1532.27 775.778C1538.49 789.527 1541.81 800.854 1539.59 800.906C1537.43 800.959 1529.26 794.427 1521.41 786.419C1513.55 778.359 1503.43 761.132 1498.9 748.12C1494.37 735.055 1490.68 716.67 1490.73 707.293C1490.84 697.863 1497.11 676.527 1504.7 659.88C1512.34 643.18 1519.77 620.106 1521.25 608.516C1522.78 596.926 1521.46 579.7 1518.35 570.323C1515.08 560.313 1514.77 553.201 1517.61 553.201Z" fill="#FB560C"/>
<path d="M49.0354 1240.69L52.5142 1290.73C54.4117 1318.23 60.6313 1353.79 66.3239 1369.75C72.0165 1385.66 78.3943 1403.47 80.5027 1409.26C82.98 1416.01 78.0781 1413.06 66.7984 1400.89C57.1526 1390.51 45.8201 1370.39 41.6561 1356.11C37.4394 1341.89 34.6986 1322.5 35.4892 1313.07C36.2798 1303.64 39.6532 1283.52 42.9739 1268.29L49.0354 1240.69Z" fill="#FB560C"/>
<path d="M54.4117 1080.01C63.7939 1080.01 68.6432 1083.49 70.8043 1091.86C72.6491 1099.08 70.6987 1106.77 65.7441 1111.62C60.9476 1116.31 54.4118 1117.89 49.5098 1115.57C45.0296 1113.36 39.9167 1107.46 38.1773 1102.4C36.3852 1097.29 36.3325 1090.18 38.0192 1086.59C39.7058 1082.96 47.0852 1080.01 54.4117 1080.01Z" fill="#FB560C"/>
<path d="M396.177 341.424L400.077 369.556C402.238 385.044 408.985 407.223 415.099 418.812C421.214 430.402 426.168 447.576 426.168 457.006C426.116 466.436 422.9 481.819 419 491.249C415.1 500.678 405.612 516.061 397.916 525.491C390.221 534.921 381.576 542.612 378.677 542.612C375.778 542.612 373.459 532.55 373.512 520.223C373.512 507.896 368.768 483.61 362.865 466.225C356.961 448.841 352.218 429.296 352.218 422.764C352.27 416.231 356.013 402.007 360.493 391.155C365.026 380.303 374.882 364.657 382.42 356.386L396.177 341.424Z" fill="#FB560C"/>
<path d="M1159.14 310.817C1161.83 310.817 1168.79 313.187 1174.58 316.085C1180.38 318.982 1187.55 329.044 1190.5 338.474C1193.45 347.904 1195.82 362.128 1195.77 370.083C1195.72 379.249 1191.77 386.519 1185.13 389.838C1179.33 392.735 1169.84 393.947 1164.04 392.472C1158.24 390.997 1149.97 382.726 1145.59 374.034C1141.22 365.341 1137.53 351.276 1137.32 342.794C1137.11 334.312 1140.85 323.671 1145.59 319.088C1150.34 314.557 1156.45 310.817 1159.14 310.817Z" fill="#FB560C"/>
<path d="M1404.39 467.911C1408.87 469.913 1411.83 476.235 1410.88 482.029C1409.93 487.772 1405.61 493.25 1401.23 494.199C1396.91 495.147 1391.59 491.617 1389.37 486.349C1387.21 481.081 1387.84 473.969 1390.8 470.545C1393.75 467.068 1399.86 465.909 1404.39 467.911Z" fill="#FB560C"/>
<path d="M859.728 1975.02C902.166 1977.33 947.677 1975.85 996.45 1970C947.155 1978.9 901.559 1980.08 859.728 1975.02Z" fill="#FCE041"/>
<path d="M987.519 0C988.099 0 987.414 8.90308 985.99 19.7553C984.515 31.029 987.097 50.837 992.052 65.851C996.849 80.3383 1000.75 98.7238 1000.7 106.679C1000.7 114.633 997.112 128.278 992.737 136.97C988.362 145.662 977.135 158.622 950.57 178.746L943.823 148.613C940.081 132.071 936.497 106.468 935.759 91.7173C934.81 72.5415 937.656 58.9498 945.563 44.3046C951.677 32.9782 963.378 18.3856 971.548 11.8532C979.718 5.32076 986.939 0 987.519 0Z" fill="#FB560C"/>
<path d="M525.472 143.292C530.269 144.24 534.907 149.719 535.856 155.461C536.804 161.203 533.695 169.527 529.004 173.847C521.413 180.853 519.569 180.853 512.348 173.847C505.759 167.42 505.39 163.679 510.503 153.775C514.087 146.927 520.57 142.344 525.472 143.292Z" fill="#FB560C"/>
<path d="M208.954 1673.72C216.755 1656.97 224.398 1643.33 225.821 1643.38C273.642 1502.31 213.013 1448.61 165.206 1506.25C131.683 1545.34 113.657 1569.78 103.484 1585.69C93.2582 1601.6 78.7105 1627.1 71.0677 1642.32C63.4249 1657.55 50.0369 1689.53 41.2872 1713.44C32.5902 1737.36 20.6253 1780.61 14.7219 1809.59C8.76575 1838.56 2.70416 1890.71 1.22831 1925.48C-1.30172 1984.64 -0.721862 1990.02 10.716 2009.56C17.41 2020.99 31.1671 2035.9 41.3399 2042.59C54.4645 2051.34 67.3781 2054.87 86.1425 2054.87C104.802 2054.87 117.768 2051.34 130.471 2042.86C140.327 2036.27 152.925 2024.95 158.459 2017.68C163.994 2010.46 169.686 1992.65 171.215 1978.16C172.691 1963.68 174.957 1948.87 176.17 1945.24C177.856 1940.18 181.124 1940.5 190.243 1946.61C196.779 1950.98 206.846 1954.56 212.644 1954.56C218.442 1954.56 228.51 1950.98 235.045 1946.61C242.056 1941.92 246.905 1933.28 246.905 1925.48C246.905 1916.48 236.152 1901.04 213.013 1876.75C194.407 1857.21 176.591 1834.66 173.481 1826.71C169.634 1816.8 169.476 1802.63 172.954 1781.93C175.748 1765.28 181.809 1741 186.395 1727.93C190.981 1714.87 201.101 1690.53 208.954 1673.72Z" fill="#F88806"/>
<path fill-rule="evenodd" clip-rule="evenodd" d="M1624.17 1090.44C1643.93 1153.22 1649.11 1188.51 1651.13 1251.59C1665.74 1239.01 1681.8 1224.28 1695.61 1210.55C1724.34 1182 1758.65 1140.75 1777.89 1111.57C1796.08 1084.01 1820.74 1038.39 1832.71 1010.15C1844.73 981.918 1860.49 935.085 1867.71 906.11C1874.98 877.136 1882.78 826.773 1885.15 794.163C1887.47 761.554 1887.47 724.835 1885.15 712.508C1882.31 697.582 1874.73 683.973 1862.44 671.68C1851.89 661.144 1834.97 650.977 1822.9 647.974C1809.09 644.497 1795.02 644.497 1782.05 647.869C1771.2 650.661 1756.97 656.614 1750.43 661.039C1743.89 665.411 1734.04 677.949 1728.5 688.802C1722.92 699.654 1716.38 720.937 1714.01 736.056C1709.63 763.134 1709.37 763.45 1697.72 755.812C1691.18 751.545 1679.22 748.067 1671.1 748.067C1662.98 748.067 1653.44 751.018 1649.91 754.653C1646.38 758.288 1643.54 768.929 1643.59 778.359C1643.69 792.056 1650.7 803.119 1678.64 833.674L1713.59 871.868C1709.21 937.508 1704.05 955.472 1687.6 990.399C1676 1015.05 1651.28 1055.09 1632.68 1079.48C1629.86 1083.18 1627 1086.86 1624.17 1090.44Z" fill="#F88806"/>
<path d="M1588.35 1130.79C1582.55 1134.64 1576.44 1136.06 1574.7 1133.9C1585.56 1204.02 1587.99 1243.48 1585.91 1313.27C1586.42 1300.74 1591.65 1295.06 1616.23 1279.04C1624.35 1273.77 1637.07 1263.68 1651.13 1251.59C1649.11 1188.51 1643.93 1153.22 1624.17 1090.44C1608.38 1110.41 1593.27 1127.53 1588.35 1130.79Z" fill="#FB560C"/>
<path fill-rule="evenodd" clip-rule="evenodd" d="M843.94 2069.67C847.155 2126.83 852.479 2159.76 870.083 2231.03C876.347 2256.48 882.217 2283.49 886.544 2306.16C808.47 2415.28 738.617 2421.72 592.724 2388.48C594.462 2381.09 597.293 2373.75 601.32 2366C607.856 2353.3 620.348 2337.03 629.045 2329.81C637.742 2322.59 654.346 2311.9 665.942 2306.16C677.538 2300.36 699.517 2294.14 714.75 2292.3C729.983 2290.46 742.475 2288.4 742.422 2287.66C742.422 2286.93 738.68 2277.44 734.094 2266.59C729.561 2255.74 720.074 2223.13 713.063 2194.16C706 2165.18 697.725 2109.45 694.668 2070.36C693.221 2051.83 692.069 2033.88 691.347 2019.52C745.579 2043.63 778.472 2053.73 843.493 2061.76L843.94 2069.67Z" fill="#F88806"/>
<path d="M878.095 2404.19C894.172 2387.49 895.12 2384.44 893.697 2353.52C893.29 2344.76 890.592 2327.36 886.544 2306.16C808.47 2415.28 738.617 2421.72 592.724 2388.48C590.869 2396.37 590.261 2404.29 590.779 2412.78C592.149 2436.33 592.307 2436.54 615.868 2441.44C631.364 2444.65 670.58 2444.18 729.192 2440.07C778.475 2436.59 828.285 2431.06 839.881 2427.85C851.477 2424.63 868.66 2413.99 878.095 2404.19Z" fill="#FB560C"/>
<path fill-rule="evenodd" clip-rule="evenodd" d="M1353.79 1962.36C1369.4 1985.54 1392.69 2027 1405.61 2054.55C1418.52 2082.1 1429.96 2105.18 1430.96 2105.92C1432.01 2106.65 1442.92 2098.86 1455.26 2088.64C1467.59 2078.42 1485.99 2067.46 1496.11 2064.24C1506.86 2060.82 1531 2059.61 1554.09 2061.3C1579.76 2063.22 1591.57 2065.51 1603.85 2072.6C1562.07 2181.58 1493.09 2206.07 1335.82 2222.23C1324.66 2203.13 1307.64 2173.33 1291.23 2144.11C1267.61 2102.07 1234.99 2049.92 1218.65 2028.21C1210.95 2017.92 1201.46 2006.06 1189.6 1992.39C1242.71 1966.63 1272.01 1951.52 1310.28 1905.12C1323.97 1921.14 1341.51 1944.11 1353.79 1962.36Z" fill="#F88806"/>
<path d="M1637.53 2107.97C1636.53 2100.86 1626.77 2088.85 1614.7 2079.89C1610.83 2077.01 1607.32 2074.61 1603.85 2072.6C1562.07 2181.58 1493.09 2206.07 1335.82 2222.23C1340.72 2230.62 1344.48 2236.94 1346.57 2240.25C1353.48 2251.1 1366.76 2264.75 1376.2 2270.54C1385.63 2276.29 1400.44 2280.97 1409.14 2280.92C1417.84 2280.87 1434.44 2276.5 1446.03 2271.23C1457.63 2265.91 1490.84 2243.89 1519.83 2222.23C1548.82 2200.64 1587.56 2168.87 1605.9 2151.7C1631.52 2127.62 1638.84 2117.51 1637.53 2107.97Z" fill="#FB560C"/>
<defs>
<linearGradient id="paint0_linear_441_269" x1="943.446" y1="0" x2="943.446" y2="2443.54" gradientUnits="userSpaceOnUse">
<stop offset="0.153846" stop-color="#FA1A11"/>
<stop offset="0.966346" stop-color="#FFEA00"/>
</linearGradient>
</defs>
</svg>
