<svg width="4072" height="1069" viewBox="0 0 4072 1069" fill="none" xmlns="http://www.w3.org/2000/svg">
<path d="M133.548 1053.55L0.000392394 37.0968V14.8388H221.097L249.29 756.772H268.58L296.774 14.8388H519.354V37.0968L385.806 1053.55H133.548ZM581.085 1053.55V14.8388H805.149V1053.55H581.085ZM894.088 1053.55V14.8388H1153.77C1202.24 14.8388 1245.76 26.2151 1284.35 48.9677C1323.92 70.7311 1355.08 100.408 1377.83 138C1401.57 175.591 1413.44 218.623 1413.44 267.096C1413.44 292.817 1408 319.526 1397.12 347.225C1386.24 373.935 1370.9 397.677 1351.12 418.451C1331.33 439.225 1307.59 453.569 1279.89 461.483V476.322C1320.45 492.149 1352.6 517.87 1376.35 553.483C1401.08 589.095 1413.44 625.697 1413.44 663.289V793.869C1413.44 842.342 1401.57 886.364 1377.83 925.933C1355.08 964.514 1323.92 995.675 1284.35 1019.42C1245.76 1042.17 1202.24 1053.55 1153.77 1053.55H894.088ZM1115.18 339.806H1132.99C1148.82 339.806 1162.17 333.87 1173.06 321.999C1184.93 309.139 1190.86 293.311 1190.86 274.516C1190.86 255.72 1184.93 239.892 1173.06 227.032C1162.17 214.172 1148.82 207.742 1132.99 207.742H1115.18V339.806ZM1115.18 862.127H1125.57C1143.38 862.127 1158.71 852.235 1171.57 832.45C1184.43 812.665 1190.86 788.923 1190.86 761.224V692.966C1190.86 664.278 1184.43 640.536 1171.57 621.741C1158.71 601.956 1143.38 592.063 1125.57 592.063H1115.18V862.127ZM1488.21 1053.55V14.8388H1903.7V207.742H1709.31V422.902H1838.41V645.482H1709.31V862.127H1903.7V1053.55H1488.21Z" fill="url(#paint0_linear_482_703)"/>
<path d="M2207.25 1068.38C2159.77 1068.38 2116.24 1057.01 2076.67 1034.26C2037.1 1010.51 2005.45 979.353 1981.71 940.772C1958.95 901.202 1947.58 857.181 1947.58 808.708V689.998H2168.67V816.127C2168.67 826.02 2172.13 835.417 2179.06 844.321C2186.97 852.235 2196.37 856.192 2207.25 856.192C2218.13 856.192 2227.53 852.235 2235.45 844.321C2243.36 835.417 2247.32 826.02 2247.32 816.127C2247.32 807.224 2246.33 799.805 2244.35 793.869C2242.37 786.944 2237.92 778.041 2230.99 767.16L2052.93 476.322C2040.07 454.558 2025.23 431.806 2008.41 408.064C1991.6 383.333 1977.25 359.096 1965.38 335.354C1953.51 310.623 1947.58 287.376 1947.58 265.612V259.677C1947.58 211.204 1958.95 167.677 1981.71 129.097C2005.45 89.5268 2037.1 58.3656 2076.67 35.6129C2116.24 11.8711 2159.77 0.000138707 2207.25 0.000138707C2255.73 0.000138707 2299.25 11.8711 2337.83 35.6129C2377.4 58.3656 2408.56 89.5268 2431.32 129.097C2455.06 167.677 2466.93 211.204 2466.93 259.677V365.031H2247.32V250.774C2247.32 239.892 2243.36 230.494 2235.45 222.58C2227.53 214.666 2218.13 210.709 2207.25 210.709C2197.36 210.709 2188.46 214.666 2180.54 222.58C2172.63 230.494 2168.67 239.892 2168.67 250.774C2168.67 257.698 2169.66 263.634 2171.64 268.58C2174.61 272.537 2178.56 278.967 2183.51 287.87L2367.51 580.192C2390.26 616.794 2412.52 653.396 2434.28 689.998C2456.05 725.611 2466.93 763.203 2466.93 802.772V808.708C2466.93 857.181 2455.06 901.202 2431.32 940.772C2408.56 979.353 2377.4 1010.51 2337.83 1034.26C2299.25 1057.01 2255.73 1068.38 2207.25 1068.38ZM2652.24 1053.55V207.742H2511.27V14.8388H3015.79V207.742H2874.82V1053.55H2652.24ZM3076.42 1053.55V14.8388H3491.9V207.742H3297.51V422.902H3426.61V645.482H3297.51V862.127H3491.9V1053.55H3076.42ZM3551.72 1053.55V14.8388H3778.75C3832.17 14.8388 3881.14 28.1936 3925.65 54.9032C3970.17 80.6236 4005.29 115.742 4031.01 160.258C4057.72 203.785 4071.07 252.752 4071.07 307.161V480.773C4071.07 506.494 4064.64 540.128 4051.78 581.676C4038.92 622.235 4014.68 658.837 3979.07 691.482V713.74L4071.07 1053.55H3848.49L3786.17 767.16H3772.81V1053.55H3551.72ZM3772.81 575.741H3784.68C3802.49 575.741 3817.33 570.794 3829.2 560.902C3842.06 550.02 3848.49 523.311 3848.49 480.773V302.709C3848.49 261.161 3842.06 234.946 3829.2 224.064C3817.33 213.182 3802.49 207.742 3784.68 207.742H3772.81V575.741Z" fill="white"/>
<defs>
<linearGradient id="paint0_linear_482_703" x1="-59.1443" y1="409.915" x2="4687.69" y2="409.915" gradientUnits="userSpaceOnUse">
<stop stop-color="#FFAB00"/>
<stop offset="0.336538" stop-color="#FF4D1C"/>
</linearGradient>
</defs>
</svg>
