<svg width="3473" height="1147" viewBox="0 0 3473 1147" fill="none" xmlns="http://www.w3.org/2000/svg">
<path fill-rule="evenodd" clip-rule="evenodd" d="M369.002 636.484C362.542 639.748 348.905 644.99 338.684 648.131C329.129 651.081 321.193 652.671 311.459 653.371C311.459 653.371 332.339 726.194 296.609 733.547C260.879 740.9 248.278 712.539 248.278 712.539C230.232 789.734 284.316 912.612 403.69 927.072C423.617 928.16 444.986 927.464 467.888 924.718C637.787 872.205 646.519 741.95 623.402 642.963C623.402 642.963 607.64 720.942 563.508 697.34C540.394 681.026 582.422 626.404 567.711 594.461C558.619 595.686 549.589 596.046 540.394 595.534C525.99 594.767 517.228 592.813 508.269 588.412C501.488 585.073 490.82 577.358 484.583 571.226C478.322 565.093 467.729 550.726 461.022 539.301C454.314 527.852 446.593 516.996 443.87 515.166C441.148 513.336 436.915 511.853 434.465 511.853C432.04 511.877 427.486 514.375 424.367 517.441C419.764 521.991 418.378 526.888 416.868 544.024C415.853 555.597 413.849 570.607 412.438 577.408C411.002 584.208 407.191 595.064 403.973 601.518C400.731 607.972 394.197 617.146 389.421 621.919C384.644 626.691 375.462 633.244 369.002 636.484ZM442.67 706.236C467.346 709.63 479.885 707.251 499.411 693.631C496.259 725.144 457.38 728.295 442.67 706.236ZM388.925 650.381C392.143 645.658 397.464 640.391 400.756 638.685C404.047 636.978 407.859 635.519 409.22 635.445C410.581 635.371 413.378 637.151 415.408 639.402C418.749 643.086 418.551 643.977 413.551 648.156C410.482 650.727 407.933 653.101 407.884 653.447C407.834 653.794 413.675 656.687 420.877 659.877C428.08 663.092 438.969 666.257 445.107 666.924C451.344 667.592 463.868 666.331 473.57 664.006C483.098 661.756 493.963 657.75 497.701 655.129C501.438 652.508 505.893 650.307 507.601 650.258C509.308 650.183 512.352 651.914 514.407 654.09C517.723 657.627 517.476 658.69 511.932 664.13C508.541 667.468 498.22 672.983 489.038 676.346C476.762 680.871 467.407 682.503 453.77 682.503C440.974 682.503 430.802 680.871 420.976 677.261C413.155 674.368 405.632 671.005 404.27 669.793C402.909 668.581 400.954 667.592 399.939 667.617C398.924 667.642 397.81 670.708 397.464 674.442C397.043 679.041 395.237 681.489 391.895 682.033C389.173 682.503 386.129 681.391 385.139 679.585C384.124 677.805 383.258 672.439 383.208 667.666C383.134 662.523 385.46 655.525 388.925 650.381Z" fill="#FCE041"/>
<path d="M369.002 477.258C390.212 477.258 409.79 475.823 420.976 473.45C427.577 472.048 436.816 468.921 446.572 464.894C436.639 416.246 424.566 391.978 381.725 358.547C405.893 413.169 377.522 435.689 352.304 477.633C358.115 477.398 363.816 477.264 369.002 477.258Z" fill="#FCE041"/>
<path d="M198.847 560.098C192.19 557.254 188.601 557.007 183.379 559.034C181.012 559.959 171.764 562.996 159.767 566.807C130.335 612.732 151.092 913.277 403.69 927.072C284.316 912.612 230.232 789.734 248.278 712.539C248.278 712.539 260.879 740.9 296.609 733.547C332.339 726.194 311.459 653.371 311.459 653.371C306.996 653.692 302.156 653.826 296.609 653.818C275.968 653.794 271.513 652.978 260.103 647.142C252.95 643.457 243.347 635.742 238.744 629.955C234.165 624.169 228.72 616.108 226.641 612.027C224.587 607.947 219.414 595.435 215.207 584.208C208.401 566.181 206.495 563.362 198.847 560.098Z" fill="#FFAB00"/>
<path d="M613.406 581.142C605.932 584.876 590.884 589.896 579.994 592.294C575.873 593.19 571.786 593.912 567.711 594.461C582.422 626.404 540.394 681.026 563.508 697.34C607.64 720.942 623.402 642.963 623.402 642.963C646.519 741.95 637.787 872.205 467.888 924.718C663.463 874.6 703.328 720.313 697.984 598.19C685.995 613.849 671.737 625.565 671.737 647.413C668.447 615.841 684.109 595.802 696.02 570.859C690.272 513.17 675.494 465.932 665.13 445.732C664.584 446.588 663.968 447.511 663.277 448.523C656.867 457.871 656.718 459.008 656.718 496.744C656.718 535.048 656.669 535.468 649.293 548.673C645.209 556.018 638.527 564.771 634.443 568.159C630.36 571.547 620.88 577.383 613.406 581.142Z" fill="#FFAB00"/>
<path d="M697.984 598.19C710.781 581.473 720.992 560.264 708.514 517.441C708.907 539.327 703.132 555.967 696.02 570.859C696.905 579.742 697.576 588.872 697.984 598.19Z" fill="#FCE041"/>
<path d="M671.737 647.413C671.737 625.565 685.995 613.849 697.984 598.19C697.576 588.872 696.905 579.742 696.02 570.859C684.109 595.802 668.447 615.841 671.737 647.413Z" fill="#FCE041"/>
<path fill-rule="evenodd" clip-rule="evenodd" d="M464.907 456.511C479.188 449.29 501.463 439.918 514.407 435.689C520.112 433.837 527.085 431.701 534.033 429.66C534.033 429.66 514.407 340.69 466.145 304.159C402.741 255.605 371.218 230.592 369.002 140.059C369.002 140.059 288.207 214.519 282.953 304.159C279.808 318.403 285.378 340.571 291.394 364.514C303.468 412.57 317.339 467.776 266.141 480.396C217.41 495.102 211.501 431.026 211.501 431.026L171.622 525.8C178.315 523.047 182.861 521.039 183.997 520.285C186.72 518.48 201.768 512.446 217.41 506.858C233.051 501.294 255.326 494.073 266.909 490.834C278.492 487.57 298.515 483.192 311.459 481.091C320.897 479.567 336.983 478.251 352.304 477.633C377.522 435.689 405.893 413.169 381.725 358.547C424.566 391.978 436.639 416.246 446.572 464.894C452.654 462.382 458.938 459.521 464.907 456.511ZM342.847 299.723C348.101 314.429 364.913 335.438 354.405 338.589C339.694 340.69 338.644 299.723 342.847 299.723ZM341.796 282.916C343.898 282.916 344.948 269.261 339.694 270.311C334.441 271.362 339.695 282.916 341.796 282.916Z" fill="#FFAB00"/>
<path fill-rule="evenodd" clip-rule="evenodd" d="M59.8366 629.296C59.5914 626.331 60.8987 625.628 65.1985 625.628C68.9109 625.628 73.6629 622.908 77.0783 618.828C80.1968 615.094 83.5381 607.848 84.5033 602.754C85.5428 597.215 88.4633 592.022 91.8045 589.846C94.8735 587.843 115.193 580.697 136.973 573.946C144.958 571.48 152.823 569.014 159.767 566.807C171.764 562.996 181.012 559.959 183.379 559.034C188.601 557.007 192.19 557.254 198.847 560.098C206.495 563.362 208.401 566.181 215.207 584.208C219.414 595.435 224.587 607.947 226.641 612.027C228.72 616.108 234.165 624.169 238.744 629.955C243.347 635.742 252.95 643.457 260.103 647.142C271.513 652.978 275.968 653.794 296.609 653.818C302.156 653.826 306.996 653.692 311.459 653.371C321.193 652.671 329.129 651.081 338.684 648.131C348.905 644.99 362.542 639.748 369.002 636.484C375.462 633.244 384.644 626.691 389.421 621.919C394.197 617.146 400.731 607.972 403.973 601.518C407.191 595.064 411.002 584.208 412.438 577.408C413.849 570.607 415.853 555.597 416.868 544.024C418.378 526.888 419.764 521.991 424.367 517.441C427.486 514.375 432.04 511.877 434.465 511.853C436.915 511.853 441.148 513.336 443.87 515.166C446.593 516.996 454.314 527.852 461.022 539.301C467.729 550.726 478.322 565.093 484.583 571.226C490.82 577.358 501.488 585.073 508.269 588.412C517.228 592.813 525.99 594.767 540.394 595.534C549.589 596.046 558.619 595.686 567.711 594.461C571.786 593.912 575.873 593.19 579.994 592.294C590.884 589.896 605.932 584.876 613.406 581.142C620.88 577.383 630.36 571.547 634.443 568.159C638.527 564.771 645.209 556.018 649.293 548.673C656.669 535.468 656.718 535.048 656.718 496.744C656.718 459.008 656.867 457.871 663.277 448.523C663.968 447.511 664.584 446.588 665.13 445.732C669.237 439.291 669.372 436.619 667.559 427.801C666.296 421.668 663.599 414.992 661.544 412.964C659.946 411.379 657.985 410.575 652.387 410.616C646.37 410.66 636.151 411.68 617.663 413.755C608.707 414.758 598.945 416.046 589.777 417.403C576.346 419.391 564.191 421.525 557.719 423.127C551.628 424.635 542.851 427.071 534.033 429.66C527.085 431.701 520.112 433.837 514.407 435.689C501.463 439.918 479.188 449.29 464.907 456.511C458.938 459.521 452.654 462.382 446.572 464.894C436.816 468.921 427.577 472.048 420.976 473.45C409.79 475.823 390.212 477.258 369.002 477.258C363.816 477.264 358.115 477.398 352.304 477.633C336.983 478.251 320.897 479.567 311.459 481.091C298.515 483.192 278.492 487.57 266.909 490.834C255.326 494.073 233.051 501.294 217.41 506.858C201.768 512.446 186.72 518.48 183.997 520.285C182.861 521.039 178.315 523.047 171.622 525.8C162.286 529.641 148.77 534.932 134.498 540.29C109.996 549.489 86.607 558.688 82.5233 560.716C78.4396 562.744 71.4849 567.046 59.011 576.171C58.1188 583.947 57.1063 610.239 59.8366 629.296ZM251.43 612.027L292.41 504.555C322.376 496.535 339.649 494.498 371.218 495.101L317.628 634.808C286.289 640.73 271.535 636.422 251.43 612.027ZM540.394 448.883L499.411 553.925C519.123 577.6 533.678 581.321 563.508 577.408L617.097 435.689C587.296 434.995 570.506 438.032 540.394 448.883Z" fill="#0C0910"/>
<path d="M292.41 504.555L251.43 612.027C271.535 636.422 286.289 640.73 317.628 634.808L371.218 495.101C339.649 494.498 322.376 496.535 292.41 504.555Z" fill="#494949"/>
<path d="M499.411 553.925L540.394 448.883C570.506 438.032 587.296 434.995 617.097 435.689L563.508 577.408C533.678 581.321 519.123 577.6 499.411 553.925Z" fill="#494949"/>
<path d="M342.847 299.723C348.101 314.429 364.913 335.438 354.405 338.589C339.694 340.69 338.644 299.723 342.847 299.723Z" fill="#FCE041"/>
<path d="M341.796 282.916C343.898 282.916 344.948 269.261 339.694 270.311C334.441 271.362 339.695 282.916 341.796 282.916Z" fill="#FCE041"/>
<path d="M119.033 515.06C126.389 514.243 124.287 482.496 121.135 471.992C113.779 471.992 107.475 515.06 119.033 515.06Z" fill="#FCE041"/>
<path d="M127.439 449.933C130.592 453.085 137.947 437.328 134.498 435.228C131.049 433.127 127.439 444.681 127.439 449.933Z" fill="#FCE041"/>
<path d="M589.777 417.403C598.945 416.046 608.707 414.758 617.663 413.755C636.151 411.68 646.37 410.66 652.387 410.616C636.665 377.984 626.152 361.739 603.437 337.567C603.752 372.281 601.726 390.363 589.777 417.403Z" fill="#FFAB00"/>
<path fill-rule="evenodd" clip-rule="evenodd" d="M410.359 7.46796C411.101 7.51742 410.309 13.9221 408.651 21.6868C406.968 29.4762 405.557 45.5991 405.557 57.4935C405.533 71.6876 407.067 84.027 410.012 93.3496C412.512 101.164 417.635 112.588 421.447 118.696C425.258 124.804 444.786 145.972 464.858 165.68C498.023 198.247 502.304 203.465 511.561 222.555C517.575 234.969 523.317 251.661 525.544 263.357C527.648 274.238 530.445 286.75 531.781 291.177C533.118 295.603 536.434 300.326 539.157 301.686C541.879 303.046 547.448 304.159 551.532 304.159C556.754 304.159 560.466 302.131 564.03 297.359C566.827 293.625 570.292 286.107 571.727 280.667C573.163 275.227 573.732 265.212 572.99 258.412C572.247 251.611 570.861 242.165 568.238 228.737L584.869 244.811C594.002 253.639 610.882 272.556 622.39 286.849C633.899 301.142 648.13 320.059 653.996 328.887C659.886 337.715 669.984 353.863 676.419 364.744C682.879 375.624 694.016 397.336 701.193 412.964C708.371 428.592 718.32 454.211 723.295 469.839C728.27 485.468 733.591 505.522 735.15 514.35C736.685 523.178 738.615 531.24 739.407 532.254C744.51 565.165 745.651 583.692 744.67 616.451C744.667 616.528 744.664 616.607 744.661 616.686C744.658 616.78 744.656 616.876 744.654 616.973C744.58 621.053 742.773 636.088 740.62 650.356C738.467 664.625 733.987 685.767 730.67 697.34C727.379 708.913 719.013 730.056 712.108 744.324C705.228 758.592 694.387 778.029 688.051 787.5C681.715 796.971 665.95 815.74 653.006 829.217C640.061 842.669 622.563 858.866 598.68 876.621C573.282 892.544 559.112 901.198 535.444 910.449L515.644 917.497C504.754 921.38 484.707 926.77 471.095 929.49C457.482 932.21 434.638 935.203 394.37 937.799C364.905 938.341 335.471 932.882 318.867 927.644C317.909 927.287 316.801 926.92 315.527 926.533C313.705 925.98 311.541 925.385 308.984 924.718C300.148 922.418 286.759 918.189 279.284 915.321C271.81 912.452 255.648 904.96 243.397 898.654C231.146 892.348 216.123 883.768 209.985 879.564C203.847 875.385 191.596 866.21 182.76 859.163C173.924 852.14 160.51 839.825 152.961 831.813C145.437 823.826 134.201 810.596 128.013 802.436C121.851 794.276 114.648 783.964 112.025 779.537C109.402 775.086 106.704 771.451 106.036 771.402C128.49 705.186 100.021 679.976 77.5733 707.034L72.1531 689.205C69.1832 679.387 65.4954 663.586 63.9857 654.066C62.476 644.545 60.7187 634.258 60.1247 631.192C60.0243 630.569 59.9284 629.936 59.8366 629.296C59.5914 626.331 60.8987 625.628 65.1985 625.628C68.9109 625.628 73.6629 622.908 77.0783 618.828C80.1968 615.094 83.5381 607.848 84.5033 602.754C85.5428 597.215 88.4633 592.022 91.8045 589.846C94.8735 587.843 115.193 580.697 136.973 573.946C144.958 571.48 152.823 569.014 159.767 566.807C130.335 612.732 151.092 913.277 403.69 927.072C423.332 929.452 444.741 928.896 467.888 924.718C663.463 874.6 703.328 720.313 697.984 598.19C710.781 581.473 720.992 560.264 708.514 517.441C708.907 539.327 703.132 555.967 696.02 570.859C690.272 513.17 675.494 465.932 665.13 445.732C669.237 439.291 669.372 436.619 667.559 427.801C666.296 421.668 663.599 414.992 661.544 412.964C659.946 411.379 657.985 410.575 652.387 410.616C636.665 377.984 626.152 361.739 603.437 337.567C603.752 372.281 601.726 390.363 589.777 417.403C576.346 419.391 564.191 421.525 557.719 423.127C551.628 424.635 542.851 427.071 534.033 429.66C534.033 429.66 514.407 340.69 466.145 304.159C402.741 255.605 371.218 230.592 369.002 140.059C369.002 140.059 288.207 214.519 282.953 304.159C279.808 318.403 285.378 340.571 291.394 364.514C303.468 412.57 317.339 467.776 266.141 480.396C217.41 495.102 211.501 431.026 211.501 431.026L171.622 525.8C162.286 529.641 148.77 534.932 134.498 540.29C109.996 549.489 86.607 558.688 82.5233 560.716C78.4396 562.744 71.4849 567.046 59.011 576.171V568.753C59.011 564.673 60.7188 548.253 62.7977 532.278C64.8767 516.304 69.2822 492.095 72.5739 478.494C75.8656 464.894 82.3748 442.069 87.0277 427.801C91.6807 413.533 99.1056 393.503 103.511 383.29C107.917 373.102 118.237 351.39 126.454 335.07C134.646 318.749 143.878 301.513 152.565 288.086L154.025 294.268C154.817 297.68 155.486 305.173 155.51 310.959C155.51 316.746 157.317 326.761 159.495 333.215C161.673 339.669 166.128 348.571 169.395 352.998C172.662 357.424 178.948 363.26 183.379 365.98C188.601 369.17 195.754 370.901 203.797 370.901C211.321 370.901 218.82 369.195 222.929 366.573C226.641 364.2 231.913 358.932 234.635 354.852C237.358 350.772 240.773 341.87 242.209 335.07C244.214 325.673 243.917 315.138 241.021 291.177C238.917 273.842 237.234 252.699 237.234 244.193C237.259 235.686 239.338 218.722 241.862 206.482C244.387 194.241 249.931 175.893 254.163 165.68C258.395 155.492 267.726 137.688 274.879 126.115C282.056 114.492 297.846 94.7344 310.172 81.9251C322.448 69.19 340.861 52.4983 351.058 44.8573C361.28 37.1915 378.481 25.6433 389.321 19.1645C400.137 12.7104 409.616 7.44324 410.359 7.46796ZM119.033 515.06C126.389 514.243 124.287 482.496 121.135 471.992C113.779 471.992 107.475 515.06 119.033 515.06ZM127.439 449.933C130.592 453.085 137.947 437.328 134.498 435.228C131.049 433.127 127.439 444.681 127.439 449.933Z" fill="url(#paint0_linear_1235_2)"/>
<path d="M400.756 638.685C397.464 640.391 392.143 645.658 388.925 650.381C385.46 655.525 383.134 662.523 383.208 667.666C383.258 672.439 384.124 677.805 385.139 679.585C386.129 681.391 389.173 682.503 391.895 682.033C395.237 681.489 397.043 679.041 397.464 674.442C397.81 670.708 398.924 667.642 399.939 667.617C400.954 667.592 402.909 668.581 404.27 669.793C405.632 671.005 413.155 674.368 420.976 677.261C430.802 680.871 440.974 682.503 453.77 682.503C467.407 682.503 476.762 680.871 489.038 676.346C498.22 672.983 508.541 667.468 511.932 664.13C517.476 658.69 517.723 657.627 514.407 654.09C512.352 651.914 509.308 650.183 507.601 650.258C505.893 650.307 501.438 652.508 497.701 655.129C493.963 657.75 483.098 661.756 473.57 664.006C463.868 666.331 451.344 667.592 445.107 666.924C438.969 666.257 428.08 663.092 420.877 659.877C413.675 656.687 407.834 653.794 407.884 653.447C407.933 653.101 410.482 650.727 413.551 648.156C418.551 643.977 418.749 643.086 415.408 639.402C413.378 637.151 410.581 635.371 409.22 635.445C407.859 635.519 404.047 636.978 400.756 638.685Z" fill="#0C0910"/>
<path d="M442.67 706.236C467.346 709.63 479.885 707.251 499.411 693.631C496.259 725.144 457.38 728.295 442.67 706.236Z" fill="#FFAB00"/>
<path d="M396.066 967.791L394.37 937.799C364.905 938.341 335.471 932.882 318.867 927.644C323.699 929.445 324.746 931 324.329 933.669C324.12 935.05 324.248 940.464 324.625 947.965C350.09 959.278 365.536 964.021 396.066 967.791Z" fill="#FF4D1C"/>
<path d="M610.51 888.985L598.68 876.621C573.282 892.544 559.112 901.198 535.444 910.449C544.787 919.862 552.375 928.072 558.583 935.228C583.519 923.135 597.277 916.044 615.248 894.261C613.508 892.228 611.901 890.433 610.51 888.985Z" fill="#FF4D1C"/>
<path d="M127.791 843.238C128.781 843.238 135.686 849.445 143.185 857.061C150.659 864.677 163.455 876.102 171.622 882.432C179.765 888.787 193.13 898.308 201.322 903.649C209.49 908.966 227.334 918.734 240.947 925.336C263.914 936.513 264.904 937.28 254.559 935.944C248.421 935.153 233.942 931.221 222.384 927.166C210.801 923.135 195.308 916.236 187.957 911.834C180.582 907.457 167.91 897.739 159.767 890.246C151.649 882.778 141.898 872.195 138.136 866.754C134.349 861.314 130.092 853.821 128.657 850.063C127.221 846.329 126.825 843.263 127.791 843.238Z" fill="#FF4D1C"/>
<path d="M765.691 699.838C767.696 699.838 769.651 701.569 770.047 703.696C770.418 705.822 769.849 712.499 768.81 718.532C767.746 724.566 763.959 736.485 760.395 744.967C756.831 753.474 749.035 767.94 743.07 777.114C737.105 786.313 723.592 802.832 713.049 813.86C702.48 824.889 691.912 834.904 689.536 836.116C687.135 837.328 692.209 829.143 700.798 817.916C709.386 806.714 719.904 791.951 724.186 785.151C728.443 778.35 736.313 762.228 741.635 749.295C746.981 736.386 752.129 722.464 753.094 718.384C754.059 714.304 756.46 708.468 758.415 705.402C760.395 702.36 763.662 699.838 765.691 699.838Z" fill="#FF4D1C"/>
<path d="M775.294 650.876C779.254 651.444 780.665 653.67 781.21 660.273C781.606 665.045 780.492 671.054 778.735 673.626C776.68 676.667 774.007 677.755 771.211 676.717C768.216 675.604 766.879 672.439 766.879 666.455C766.879 661.707 767.597 656.069 768.488 653.967C769.379 651.815 772.374 650.455 775.294 650.876Z" fill="#FF4D1C"/>
<path d="M827.912 625.282C829.942 626.172 831.229 629.115 830.783 631.835C830.288 634.852 828.061 636.781 825.066 636.781C822.071 636.781 819.819 634.852 819.324 631.835C818.854 629.115 819.77 626.172 821.354 625.282C822.913 624.367 825.883 624.367 827.912 625.282Z" fill="#FF4D1C"/>
<path d="M712.603 259.673C713.865 259.673 716.687 263.283 718.914 267.709C721.117 272.111 722.85 280.741 722.775 286.874C722.701 292.982 720.226 303.566 717.281 310.366C713.148 319.96 712.182 326.044 713.049 337.567C713.667 345.727 716.563 357.671 719.483 364.15C722.404 370.604 723.963 375.921 722.924 375.946C721.909 375.97 718.073 372.904 714.385 369.145C710.697 365.362 705.945 357.276 703.817 351.168C701.688 345.035 699.956 336.405 699.981 332.003C700.03 327.577 702.975 317.562 706.539 309.748C710.128 301.909 713.618 291.078 714.311 285.638C715.029 280.197 714.41 272.111 712.95 267.709C711.415 263.011 711.267 259.673 712.603 259.673Z" fill="#FB560C"/>
<path d="M23.0248 582.378L24.6583 605.87C25.5493 618.778 28.4697 635.47 31.1427 642.963C33.8157 650.431 36.8105 658.789 37.8004 661.509C38.9637 664.674 36.662 663.289 31.3655 657.577C26.8363 652.706 21.5151 643.259 19.5598 636.558C17.5799 629.881 16.2929 620.781 16.6641 616.355C17.0354 611.928 18.6194 602.482 20.1786 595.336L23.0248 582.378Z" fill="#FF4D1C"/>
<path d="M25.5493 506.956C29.9548 506.956 32.2318 508.589 33.2465 512.52C34.1127 515.908 33.197 519.518 30.8705 521.794C28.6182 523.994 25.5493 524.736 23.2476 523.648C21.1439 522.61 18.7431 519.84 17.9264 517.466C17.0849 515.067 17.0601 511.729 17.8521 510.048C18.6441 508.341 22.1091 506.956 25.5493 506.956Z" fill="#FF4D1C"/>
<path d="M186.027 160.265L187.858 173.47C188.873 180.74 192.041 191.15 194.912 196.591C197.783 202.031 200.109 210.092 200.109 214.519C200.085 218.945 198.575 226.166 196.744 230.592C194.912 235.019 190.457 242.239 186.844 246.666C183.23 251.092 179.171 254.702 177.81 254.702C176.449 254.702 175.36 249.979 175.384 244.193C175.384 238.406 173.157 227.007 170.385 218.846C167.613 210.686 165.386 201.512 165.386 198.445C165.41 195.379 167.167 188.702 169.271 183.608C171.4 178.514 176.028 171.17 179.567 167.287L186.027 160.265Z" fill="#FF4D1C"/>
<path d="M544.28 145.897C545.542 145.897 548.809 147.01 551.532 148.37C554.254 149.73 557.62 154.453 559.006 158.88C560.392 163.306 561.506 169.983 561.481 173.717C561.456 178.02 559.6 181.432 556.482 182.99C553.759 184.35 549.304 184.919 546.582 184.226C543.859 183.534 539.973 179.652 537.919 175.571C535.865 171.491 534.132 164.889 534.033 160.908C533.934 156.926 535.692 151.931 537.919 149.78C540.147 147.653 543.018 145.897 544.28 145.897Z" fill="#FF4D1C"/>
<path d="M659.441 219.637C661.544 220.577 662.93 223.545 662.485 226.265C662.039 228.96 660.01 231.532 657.956 231.977C655.926 232.422 653.426 230.765 652.387 228.292C651.372 225.82 651.669 222.481 653.055 220.874C654.441 219.242 657.312 218.698 659.441 219.637Z" fill="#FF4D1C"/>
<path d="M403.69 927.072C423.617 928.16 444.986 927.464 467.888 924.718C444.741 928.896 423.332 929.452 403.69 927.072Z" fill="#FCE041"/>
<path d="M463.695 0C463.967 0 463.645 4.17911 462.977 9.27315C462.284 14.565 463.497 23.8629 465.823 30.9105C468.075 37.7108 469.907 46.341 469.882 50.075C469.882 53.8089 468.199 60.2136 466.145 64.2938C464.091 68.374 458.819 74.4572 446.345 83.9034L443.177 69.7587C441.42 61.994 439.737 49.976 439.39 43.0521C438.945 34.051 440.281 27.671 443.994 20.7966C446.865 15.48 452.359 8.6302 456.195 5.56388C460.032 2.49757 463.422 0 463.695 0Z" fill="#FF4D1C"/>
<path d="M246.738 67.2612C248.99 67.7063 251.168 70.2781 251.614 72.9734C252.059 75.6688 250.599 79.5759 248.396 81.6037C244.832 84.8925 243.966 84.8925 240.575 81.6037C237.482 78.5868 237.308 76.8311 239.709 72.1821C241.392 68.9674 244.436 66.8161 246.738 67.2612Z" fill="#FF4D1C"/>
<path d="M98.1156 785.645C101.779 777.782 105.367 771.377 106.036 771.402C128.49 705.186 100.021 679.976 77.5733 707.034C61.8325 725.382 53.368 736.856 48.5913 744.324C43.7899 751.792 36.9589 763.761 33.3702 770.907C29.7815 778.054 23.4951 793.064 19.3866 804.29C15.3029 815.517 9.6847 835.819 6.91273 849.42C4.116 863.02 1.26975 887.501 0.57676 903.822C-0.611229 931.592 -0.338954 934.115 5.03175 943.289C8.17497 948.655 14.6347 955.653 19.4114 958.793C25.5741 962.898 31.6377 964.555 40.4487 964.555C49.2101 964.555 55.2985 962.898 61.2632 958.917C65.8914 955.826 71.8066 950.509 74.4054 947.097C77.0041 943.709 79.6771 935.351 80.3948 928.551C81.0878 921.75 82.152 914.802 82.7213 913.095C83.5133 910.721 85.0478 910.87 89.3295 913.738C92.3985 915.791 97.1257 917.472 99.8481 917.472C102.571 917.472 107.298 915.791 110.367 913.738C113.658 911.538 115.936 907.482 115.936 903.822C115.936 899.594 110.887 892.348 100.021 880.949C91.2847 871.774 82.9193 861.19 81.4591 857.456C79.6523 852.807 79.5781 846.156 81.2116 836.437C82.5233 828.623 85.3695 817.223 87.5227 811.091C89.676 804.958 94.4279 793.534 98.1156 785.645Z" fill="#FFAB00"/>
<path fill-rule="evenodd" clip-rule="evenodd" d="M762.636 511.853C771.917 541.32 774.35 557.887 775.294 587.495C782.158 581.592 789.698 574.675 796.183 568.233C809.672 554.831 825.784 535.468 834.817 521.769C843.356 508.836 854.939 487.421 860.557 474.167C866.2 460.912 873.6 438.929 876.991 425.328C880.407 411.728 884.069 388.087 885.183 372.78C886.272 357.473 886.272 340.238 885.183 334.451C883.847 327.445 880.291 321.057 874.516 315.287C869.566 310.341 861.622 305.569 855.954 304.159C849.469 302.527 842.861 302.527 836.773 304.11C831.674 305.42 824.992 308.214 821.923 310.292C818.854 312.344 814.226 318.23 811.627 323.324C809.004 328.418 805.935 338.408 804.821 345.505C802.767 358.215 802.643 358.364 797.173 354.778C794.104 352.775 788.486 351.143 784.674 351.143C780.863 351.143 776.383 352.528 774.725 354.234C773.067 355.94 771.73 360.935 771.755 365.362C771.804 371.791 775.096 376.984 788.214 391.327L804.623 409.255C802.568 440.066 800.143 448.499 792.421 464.894C786.976 476.466 775.369 495.26 766.632 506.709C765.307 508.447 763.966 510.171 762.636 511.853Z" fill="#FFAB00"/>
<path d="M745.817 530.795C743.095 532.6 740.224 533.267 739.407 532.254C744.51 565.165 745.651 583.692 744.67 616.451C744.913 610.566 747.366 607.901 758.91 600.38C762.72 597.907 768.694 593.17 775.294 587.495C774.35 557.887 771.917 541.32 762.636 511.853C755.221 521.227 748.126 529.264 745.817 530.795Z" fill="#FB560C"/>
<path fill-rule="evenodd" clip-rule="evenodd" d="M396.276 971.504C397.786 998.334 400.286 1013.79 408.552 1047.25C411.493 1059.19 414.249 1071.87 416.281 1082.51C379.621 1133.73 346.821 1136.75 278.317 1121.15C279.133 1117.69 280.462 1114.24 282.353 1110.6C285.422 1104.64 291.288 1097 295.371 1093.61C299.455 1090.22 307.251 1085.2 312.696 1082.51C318.141 1079.79 328.462 1076.87 335.615 1076.01C342.767 1075.14 348.633 1074.18 348.608 1073.83C348.608 1073.48 346.851 1069.03 344.698 1063.94C342.569 1058.84 338.114 1043.54 334.823 1029.94C331.506 1016.34 327.62 990.174 326.185 971.825C325.505 963.129 324.965 954.705 324.625 947.965C350.09 959.278 365.536 964.021 396.066 967.791L396.276 971.504Z" fill="#FFAB00"/>
<path d="M412.314 1128.53C419.863 1120.69 420.308 1119.26 419.64 1104.74C419.449 1100.63 418.182 1092.46 416.281 1082.51C379.621 1133.73 346.821 1136.75 278.317 1121.15C277.445 1124.85 277.16 1128.58 277.403 1132.56C278.047 1143.61 278.121 1143.71 289.184 1146.01C296.46 1147.52 314.874 1147.3 342.396 1145.37C365.537 1143.74 388.926 1141.14 394.37 1139.63C399.815 1138.12 407.884 1133.13 412.314 1128.53Z" fill="#FF4D1C"/>
<path fill-rule="evenodd" clip-rule="evenodd" d="M635.681 921.132C643.007 932.013 653.946 951.474 660.01 964.407C666.074 977.34 671.444 988.171 671.914 988.517C672.409 988.863 677.533 985.203 683.324 980.406C689.116 975.609 697.753 970.465 702.505 968.957C707.554 967.349 718.89 966.781 729.73 967.572C741.785 968.478 747.332 969.549 753.094 972.881C733.476 1024.04 701.087 1035.53 627.241 1043.12C622.002 1034.15 614.009 1020.16 606.303 1006.45C595.215 986.712 579.895 962.231 572.222 952.043C568.607 947.214 564.15 941.645 558.583 935.228C583.519 923.135 597.277 916.044 615.248 894.261C621.679 901.782 629.914 912.568 635.681 921.132Z" fill="#FFAB00"/>
<path d="M768.909 989.481C768.439 986.143 763.86 980.505 758.192 976.301C756.374 974.948 754.725 973.824 753.094 972.881C733.476 1024.04 701.087 1035.53 627.241 1043.12C629.54 1047.05 631.309 1050.02 632.29 1051.57C635.532 1056.67 641.769 1063.07 646.2 1065.79C650.63 1068.49 657.584 1070.69 661.668 1070.66C665.752 1070.64 673.548 1068.59 678.993 1066.11C684.438 1063.62 700.03 1053.28 713.643 1043.12C727.255 1032.98 745.446 1018.07 754.059 1010.01C766.087 998.705 769.528 993.957 768.909 989.481Z" fill="#FF4D1C"/>
<path d="M1065.63 966L984.906 351.636V338.183H1118.54L1135.58 786.624H1147.24L1164.28 338.183H1298.82V351.636L1218.1 966H1065.63ZM1336.13 966V338.183H1471.56V966H1336.13ZM1525.31 966V338.183H1682.27C1711.57 338.183 1737.87 345.059 1761.19 358.811C1785.11 371.965 1803.94 389.903 1817.7 412.624C1832.05 435.345 1839.22 461.354 1839.22 490.653C1839.22 506.199 1835.93 522.342 1829.36 539.084C1822.78 555.228 1813.51 569.578 1801.55 582.134C1789.59 594.691 1775.24 603.361 1758.5 608.144V617.113C1783.02 626.68 1802.45 642.226 1816.8 663.751C1831.75 685.276 1839.22 707.399 1839.22 730.12V809.046C1839.22 838.344 1832.05 864.951 1817.7 888.868C1803.94 912.187 1785.11 931.022 1761.19 945.372C1737.87 959.124 1711.57 966 1682.27 966H1525.31ZM1658.95 534.6H1669.71C1679.28 534.6 1687.35 531.012 1693.93 523.837C1701.1 516.064 1704.69 506.497 1704.69 495.137C1704.69 483.776 1701.1 474.21 1693.93 466.437C1687.35 458.664 1679.28 454.777 1669.71 454.777H1658.95V534.6ZM1658.95 850.302H1665.23C1675.99 850.302 1685.26 844.323 1693.03 832.365C1700.8 820.406 1704.69 806.056 1704.69 789.314V748.058C1704.69 730.718 1700.8 716.368 1693.03 705.007C1685.26 693.049 1675.99 687.07 1665.23 687.07H1658.95V850.302ZM1884.42 966V338.183H2135.54V454.777H2018.05V584.825H2096.08V719.357H2018.05V850.302H2135.54V966H1884.42Z" fill="url(#paint1_linear_1235_2)"/>
<path d="M2319.02 974.969C2290.32 974.969 2264.01 968.093 2240.09 954.341C2216.18 939.99 2197.04 921.156 2182.69 897.837C2168.94 873.92 2162.06 847.313 2162.06 818.014V746.264H2295.7V822.499C2295.7 828.478 2297.79 834.158 2301.98 839.54C2306.76 844.323 2312.44 846.715 2319.02 846.715C2325.6 846.715 2331.28 844.323 2336.06 839.54C2340.84 834.158 2343.23 828.478 2343.23 822.499C2343.23 817.118 2342.64 812.633 2341.44 809.046C2340.24 804.86 2337.55 799.479 2333.37 792.902L2225.74 617.113C2217.97 603.959 2209 590.206 2198.84 575.856C2188.67 560.908 2180 546.259 2172.83 531.909C2165.65 516.961 2162.06 502.91 2162.06 489.756V486.168C2162.06 456.87 2168.94 430.561 2182.69 407.243C2197.04 383.326 2216.18 364.491 2240.09 350.739C2264.01 336.389 2290.32 329.214 2319.02 329.214C2348.32 329.214 2374.63 336.389 2397.94 350.739C2421.86 364.491 2440.7 383.326 2454.45 407.243C2468.8 430.561 2475.97 456.87 2475.97 486.168V549.847H2343.23V480.787C2343.23 474.21 2340.84 468.529 2336.06 463.746C2331.28 458.963 2325.6 456.571 2319.02 456.571C2313.04 456.571 2307.66 458.963 2302.87 463.746C2298.09 468.529 2295.7 474.21 2295.7 480.787C2295.7 484.972 2296.3 488.56 2297.49 491.549C2299.29 493.941 2301.68 497.828 2304.67 503.209L2415.88 679.895C2429.63 702.018 2443.09 724.141 2456.24 746.264C2469.4 767.789 2475.97 790.51 2475.97 814.427V818.014C2475.97 847.313 2468.8 873.92 2454.45 897.837C2440.7 921.156 2421.86 939.99 2397.94 954.341C2374.63 968.093 2348.32 974.969 2319.02 974.969ZM2587.98 966V454.777H2502.77V338.183H2807.71V454.777H2722.51V966H2587.98ZM2844.36 966V338.183H3095.49V454.777H2978V584.825H3056.02V719.357H2978V850.302H3095.49V966H2844.36ZM3131.64 966V338.183H3268.87C3301.15 338.183 3330.75 346.255 3357.66 362.398C3384.56 377.944 3405.79 399.171 3421.34 426.077C3437.48 452.386 3445.55 481.983 3445.55 514.868V619.804C3445.55 635.35 3441.66 655.679 3433.89 680.792C3426.12 705.306 3411.47 727.429 3389.94 747.161V760.614L3445.55 966H3311.02L3273.35 792.902H3265.28V966H3131.64ZM3265.28 677.204H3272.45C3283.22 677.204 3292.18 674.214 3299.36 668.235C3307.13 661.658 3311.02 645.514 3311.02 619.804V512.178C3311.02 487.065 3307.13 471.22 3299.36 464.643C3292.18 458.066 3283.22 454.777 3272.45 454.777H3265.28V677.204Z" fill="white"/>
<defs>
<linearGradient id="paint0_linear_1235_2" x1="443" y1="0" x2="443" y2="1147" gradientUnits="userSpaceOnUse">
<stop stop-color="#FF1404"/>
<stop offset="0.379808" stop-color="#FF4D1C"/>
<stop offset="0.8125" stop-color="#FFAB00"/>
</linearGradient>
<linearGradient id="paint1_linear_1235_2" x1="949.158" y1="577.548" x2="3818.25" y2="577.548" gradientUnits="userSpaceOnUse">
<stop stop-color="#FFAB00"/>
<stop offset="0.336538" stop-color="#FF4D1C"/>
</linearGradient>
</defs>
</svg>
