<svg width="387" height="102" viewBox="0 0 387 102" fill="none" xmlns="http://www.w3.org/2000/svg">
<path d="M12.6772 100.009L1.20698e-05 3.52143V1.40857H20.9878L23.664 71.8372H25.4952L28.1715 1.40857H49.3001V3.52143L36.6229 100.009H12.6772ZM55.16 100.009V1.40857H76.4294V100.009H55.16ZM84.8721 100.009V1.40857H109.522C114.123 1.40857 118.255 2.48848 121.918 4.64829C125.674 6.7142 128.632 9.53135 130.792 13.0997C133.045 16.6681 134.172 20.753 134.172 25.3543C134.172 27.7958 133.656 30.3313 132.623 32.9606C131.59 35.496 130.134 37.7498 128.256 39.7218C126.378 41.6938 124.124 43.0554 121.495 43.8066V45.2152C125.345 46.7177 128.397 49.1592 130.651 52.5398C132.998 55.9204 134.172 59.3948 134.172 62.9632V75.3587C134.172 79.96 133.045 84.1388 130.792 87.895C128.632 91.5573 125.674 94.5153 121.918 96.769C118.255 98.9288 114.123 100.009 109.522 100.009H84.8721ZM105.86 32.2563H107.55C109.053 32.2563 110.32 31.6929 111.353 30.566C112.48 29.3453 113.044 27.8428 113.044 26.0586C113.044 24.2744 112.48 22.7719 111.353 21.5512C110.32 20.3304 109.053 19.72 107.55 19.72H105.86V32.2563ZM105.86 81.8381H106.846C108.536 81.8381 109.992 80.8991 111.212 79.021C112.433 77.1429 113.044 74.8891 113.044 72.2598V65.7804C113.044 63.0571 112.433 60.8034 111.212 59.0192C109.992 57.1411 108.536 56.2021 106.846 56.2021H105.86V81.8381ZM141.27 100.009V1.40857H180.71V19.72H162.258V40.1443H174.512V61.2729H162.258V81.8381H180.71V100.009H141.27Z" fill="url(#paint0_linear_1242_336)"/>
<path d="M209.525 101.417C205.018 101.417 200.886 100.337 197.13 98.1776C193.374 95.9238 190.369 92.9658 188.115 89.3036C185.955 85.5474 184.875 81.3686 184.875 76.7672V65.4987H205.863V77.4715C205.863 78.4106 206.192 79.3027 206.849 80.1478C207.6 80.8991 208.492 81.2747 209.525 81.2747C210.558 81.2747 211.45 80.8991 212.202 80.1478C212.953 79.3027 213.328 78.4106 213.328 77.4715C213.328 76.6264 213.235 75.9221 213.047 75.3587C212.859 74.7013 212.436 73.8562 211.779 72.8232L194.876 45.2152C193.655 43.1493 192.247 40.9895 190.65 38.7358C189.054 36.3881 187.692 34.0875 186.566 31.8338C185.439 29.4861 184.875 27.2794 184.875 25.2135V24.65C184.875 20.0487 185.955 15.9169 188.115 12.2546C190.369 8.49839 193.374 5.54039 197.13 3.38057C200.886 1.12686 205.018 -9.48232e-07 209.525 -9.48232e-07C214.127 -9.48232e-07 218.258 1.12686 221.921 3.38057C225.677 5.54039 228.635 8.49839 230.795 12.2546C233.048 15.9169 234.175 20.0487 234.175 24.65V34.6509H213.328V23.8049C213.328 22.7719 212.953 21.8798 212.202 21.1286C211.45 20.3774 210.558 20.0017 209.525 20.0017C208.586 20.0017 207.741 20.3774 206.99 21.1286C206.239 21.8798 205.863 22.7719 205.863 23.8049C205.863 24.4622 205.957 25.0257 206.145 25.4952C206.426 25.8708 206.802 26.4812 207.272 27.3263L224.738 55.0752C226.898 58.5497 229.011 62.0242 231.076 65.4987C233.142 68.8792 234.175 72.4476 234.175 76.2038V76.7672C234.175 81.3686 233.048 85.5474 230.795 89.3036C228.635 92.9658 225.677 95.9238 221.921 98.1776C218.258 100.337 214.127 101.417 209.525 101.417ZM251.766 100.009V19.72H238.385V1.40857H286.276V19.72H272.895V100.009H251.766ZM292.031 100.009V1.40857H331.471V19.72H313.019V40.1443H325.274V61.2729H313.019V81.8381H331.471V100.009H292.031ZM337.15 100.009V1.40857H358.701C363.772 1.40857 368.42 2.67629 372.646 5.21172C376.872 7.65325 380.205 10.9869 382.647 15.2126C385.182 19.3444 386.45 23.9927 386.45 29.1575V45.6378C386.45 48.0793 385.839 51.2721 384.619 55.2161C383.398 59.0662 381.097 62.5407 377.717 65.6395V67.7524L386.45 100.009H365.321L359.405 72.8232H358.137V100.009H337.15ZM358.137 54.6526H359.264C360.955 54.6526 362.363 54.1831 363.49 53.2441C364.711 52.2111 365.321 49.6757 365.321 45.6378V28.7349C365.321 24.7909 364.711 22.3024 363.49 21.2695C362.363 20.2365 360.955 19.72 359.264 19.72H358.137V54.6526Z" fill="white"/>
<defs>
<linearGradient id="paint0_linear_1242_336" x1="-5.61439" y1="39.0653" x2="444.998" y2="39.0653" gradientUnits="userSpaceOnUse">
<stop stop-color="#FFAB00"/>
<stop offset="0.336538" stop-color="#FF4D1C"/>
</linearGradient>
</defs>
</svg>
